<svg xmlns="http://www.w3.org/2000/svg" aria-hidden="true" style="position:absolute;width:0;height:0;overflow:hidden"><defs><symbol id="icon-instagram" viewBox="0 0 32 32"><path d="M10.342.941h11.294c5.197 0 9.412 4.215 9.412 9.412v11.294c0 5.197-4.215 9.412-9.412 9.412H10.342c-5.197 0-9.412-4.215-9.412-9.412V10.353C.93 5.156 5.145.941 10.342.941zm11.294 27.294a6.595 6.595 0 0 0 6.588-6.588V10.353a6.595 6.595 0 0 0-6.588-6.588H10.342a6.595 6.595 0 0 0-6.588 6.588v11.294a6.595 6.595 0 0 0 6.588 6.588h11.294z"/><path d="M8.46 16a7.53 7.53 0 1 1 15.058 0A7.53 7.53 0 0 1 8.46 16zm2.823 0c0 2.594 2.112 4.706 4.706 4.706s4.706-2.112 4.706-4.706c0-2.596-2.112-4.706-4.706-4.706s-4.706 2.11-4.706 4.706zM25.087 7.906a1.003 1.003 0 1 1-2.006 0 1.003 1.003 0 0 1 2.006 0z"/></symbol><symbol id="icon-twitter" viewBox="0 0 32 32"><path d="M31.229 6.761a12.76 12.76 0 0 1-3.52.965 6.078 6.078 0 0 0 2.688-3.377 12.227 12.227 0 0 1-3.874 1.479 6.107 6.107 0 0 0-10.567 4.178c0 .484.041.95.142 1.393-5.079-.248-9.573-2.682-12.592-6.39a6.15 6.15 0 0 0-.836 3.088 6.118 6.118 0 0 0 2.714 5.077 6.046 6.046 0 0 1-2.76-.752v.067c0 2.969 2.118 5.435 4.894 6.003a6.094 6.094 0 0 1-1.602.201c-.391 0-.786-.022-1.157-.104.792 2.419 3.038 4.198 5.708 4.256a12.274 12.274 0 0 1-7.575 2.605c-.501 0-.982-.022-1.462-.084a17.2 17.2 0 0 0 9.372 2.742c11.242 0 17.388-9.312 17.388-17.384 0-.27-.009-.531-.022-.79a12.19 12.19 0 0 0 3.062-3.172z"/></symbol><symbol id="icon-facebook" viewBox="0 0 32 32"><path d="M20.979 5.396h2.899V.347c-.5-.069-2.22-.224-4.223-.224-4.179 0-7.042 2.629-7.042 7.46v4.447H8.001v5.644h4.612v14.201h5.654v-14.2h4.425l.703-5.644h-5.129V8.143c.001-1.631.441-2.748 2.713-2.748z"/></symbol><symbol id="icon-subtract" viewBox="0 0 32 32"><path fill="#128c76" d="M16 32c8.837 0 16-7.163 16-16S24.837 0 16 0 0 7.163 0 16c0 1.759.284 3.451.808 5.034l4.416-3.864a.573.573 0 0 1 .81.058l4.41 5.145 12.961-12.241-3.762-.107a.572.572 0 0 1 .032-1.143l5.141.147a.572.572 0 0 1 .555.588l-.147 5.141a.571.571 0 1 1-1.143-.033l.108-3.762-13.397 12.653a.573.573 0 0 1-.826-.044L5.542 18.41l-4.306 3.767C3.653 27.946 9.353 31.999 16 31.999z" style="fill:var(--color1, #128c76)"/></symbol><symbol id="icon-caretdown" viewBox="0 0 32 32"><path d="M5.678 11.034c-.17.095-.315.212-.436.35l-.002.002c-.356.402-.368.756-.044 1.194.324.436 10.226 10.276 10.438 10.372a.84.84 0 0 0 .737-.002l-.005.002c.21-.096 10.032-9.856 10.416-10.352.378-.486.334-.902-.142-1.34a1.432 1.432 0 0 0-.436-.275l-.01-.003c-.482-.144-.262-.34-5.46 4.85L16 20.558l-4.706-4.702c-5.304-5.3-5.048-5.08-5.616-4.822z"/></symbol><symbol id="icon-caretright" viewBox="0 0 32 32"><path d="M5.678 11.034c-.17.095-.315.212-.436.35l-.002.002c-.356.402-.368.756-.044 1.194.324.436 10.226 10.276 10.438 10.372a.84.84 0 0 0 .737-.002l-.005.002c.21-.096 10.032-9.856 10.416-10.352.378-.486.334-.902-.142-1.34a1.432 1.432 0 0 0-.436-.275l-.01-.003c-.482-.144-.262-.34-5.46 4.85L16 20.558l-4.706-4.702c-5.304-5.3-5.048-5.08-5.616-4.822z"/></symbol><symbol id="icon-caretup" viewBox="0 0 32 32"><path d="M5.678 11.034c-.17.095-.315.212-.436.35l-.002.002c-.356.402-.368.756-.044 1.194.324.436 10.226 10.276 10.438 10.372a.84.84 0 0 0 .737-.002l-.005.002c.21-.096 10.032-9.856 10.416-10.352.378-.486.334-.902-.142-1.34a1.432 1.432 0 0 0-.436-.275l-.01-.003c-.482-.144-.262-.34-5.46 4.85L16 20.558l-4.706-4.702c-5.304-5.3-5.048-5.08-5.616-4.822z"/></symbol></defs></svg>